<mxfile host="app.diagrams.net" modified="2021-08-31T09:04:56.024Z" agent="5.0 (X11; Linux x86_64) AppleWebKit/537.36 (KHTML, like Gecko) Chrome/92.0.4515.131 Safari/537.36" etag="ovkWP3NYzgqTEmOEXHqt" version="14.9.6" type="github">
  <diagram id="C5RBs43oDa-KdzZeNtuy" name="Page-1">
    <mxGraphModel dx="1422" dy="801" grid="1" gridSize="10" guides="1" tooltips="1" connect="1" arrows="1" fold="1" page="1" pageScale="1" pageWidth="827" pageHeight="1169" math="0" shadow="0">
      <root>
        <mxCell id="WIyWlLk6GJQsqaUBKTNV-0" />
        <mxCell id="WIyWlLk6GJQsqaUBKTNV-1" parent="WIyWlLk6GJQsqaUBKTNV-0" />
        <mxCell id="7iix_xWV6DJYJdKr2cIY-4" value="" style="edgeStyle=orthogonalEdgeStyle;rounded=0;orthogonalLoop=1;jettySize=auto;html=1;" parent="WIyWlLk6GJQsqaUBKTNV-1" source="WIyWlLk6GJQsqaUBKTNV-3" edge="1">
          <mxGeometry relative="1" as="geometry">
            <mxPoint x="240" y="200" as="targetPoint" />
          </mxGeometry>
        </mxCell>
        <mxCell id="7iix_xWV6DJYJdKr2cIY-10" value="&lt;br/&gt;&lt;span&gt;&lt;/span&gt;&amp;nbsp;detain_guarded_request" style="edgeLabel;html=1;align=center;verticalAlign=middle;resizable=0;points=[];" parent="7iix_xWV6DJYJdKr2cIY-4" vertex="1" connectable="0">
          <mxGeometry x="-0.1755" y="1" relative="1" as="geometry">
            <mxPoint as="offset" />
          </mxGeometry>
        </mxCell>
        <mxCell id="WIyWlLk6GJQsqaUBKTNV-3" value="&amp;nbsp;AbstractWriteLog&amp;lt;I&amp;gt;::write()" style="rounded=1;whiteSpace=wrap;html=1;fontSize=12;glass=0;strokeWidth=1;shadow=0;" parent="WIyWlLk6GJQsqaUBKTNV-1" vertex="1">
          <mxGeometry x="160" y="80" width="160" height="40" as="geometry" />
        </mxCell>
        <mxCell id="5mb_2o-Lz0aX2MOy3_xr-15" style="edgeStyle=orthogonalEdgeStyle;rounded=0;orthogonalLoop=1;jettySize=auto;html=1;exitX=0.5;exitY=1;exitDx=0;exitDy=0;entryX=0.5;entryY=0;entryDx=0;entryDy=0;" edge="1" parent="WIyWlLk6GJQsqaUBKTNV-1" source="5mb_2o-Lz0aX2MOy3_xr-0" target="5mb_2o-Lz0aX2MOy3_xr-2">
          <mxGeometry relative="1" as="geometry">
            <mxPoint x="240" y="300" as="targetPoint" />
          </mxGeometry>
        </mxCell>
        <mxCell id="5mb_2o-Lz0aX2MOy3_xr-0" value="&lt;br&gt;&lt;span&gt;AbstractWriteLog&amp;lt;I&amp;gt;::&lt;/span&gt;&lt;br&gt;&lt;p&gt;alloc_and_dispatch_io_req&lt;/p&gt;" style="rounded=0;whiteSpace=wrap;html=1;" vertex="1" parent="WIyWlLk6GJQsqaUBKTNV-1">
          <mxGeometry x="145" y="200" width="190" height="60" as="geometry" />
        </mxCell>
        <mxCell id="5mb_2o-Lz0aX2MOy3_xr-16" style="edgeStyle=orthogonalEdgeStyle;rounded=0;orthogonalLoop=1;jettySize=auto;html=1;exitX=0.5;exitY=1;exitDx=0;exitDy=0;entryX=0.5;entryY=0;entryDx=0;entryDy=0;" edge="1" parent="WIyWlLk6GJQsqaUBKTNV-1" source="5mb_2o-Lz0aX2MOy3_xr-2" target="5mb_2o-Lz0aX2MOy3_xr-14">
          <mxGeometry relative="1" as="geometry" />
        </mxCell>
        <mxCell id="5mb_2o-Lz0aX2MOy3_xr-2" value="&amp;nbsp;dispatch_here?" style="rhombus;whiteSpace=wrap;html=1;" vertex="1" parent="WIyWlLk6GJQsqaUBKTNV-1">
          <mxGeometry x="140" y="310" width="200" height="80" as="geometry" />
        </mxCell>
        <mxCell id="5mb_2o-Lz0aX2MOy3_xr-6" value="" style="rounded=0;whiteSpace=wrap;html=1;" vertex="1" parent="WIyWlLk6GJQsqaUBKTNV-1">
          <mxGeometry x="540" y="30" width="190" height="60" as="geometry" />
        </mxCell>
        <mxCell id="5mb_2o-Lz0aX2MOy3_xr-7" value="" style="rounded=0;whiteSpace=wrap;html=1;" vertex="1" parent="WIyWlLk6GJQsqaUBKTNV-1">
          <mxGeometry x="550" y="40" width="190" height="60" as="geometry" />
        </mxCell>
        <mxCell id="5mb_2o-Lz0aX2MOy3_xr-8" value="" style="rounded=0;whiteSpace=wrap;html=1;" vertex="1" parent="WIyWlLk6GJQsqaUBKTNV-1">
          <mxGeometry x="560" y="50" width="190" height="60" as="geometry" />
        </mxCell>
        <mxCell id="5mb_2o-Lz0aX2MOy3_xr-9" value="" style="rounded=0;whiteSpace=wrap;html=1;" vertex="1" parent="WIyWlLk6GJQsqaUBKTNV-1">
          <mxGeometry x="570" y="60" width="190" height="60" as="geometry" />
        </mxCell>
        <mxCell id="5mb_2o-Lz0aX2MOy3_xr-24" style="edgeStyle=orthogonalEdgeStyle;rounded=0;orthogonalLoop=1;jettySize=auto;html=1;exitX=0.5;exitY=1;exitDx=0;exitDy=0;entryX=0.5;entryY=0;entryDx=0;entryDy=0;" edge="1" parent="WIyWlLk6GJQsqaUBKTNV-1" source="5mb_2o-Lz0aX2MOy3_xr-10" target="5mb_2o-Lz0aX2MOy3_xr-20">
          <mxGeometry relative="1" as="geometry" />
        </mxCell>
        <mxCell id="5mb_2o-Lz0aX2MOy3_xr-10" value="&lt;br&gt;&lt;span&gt;WriteLog&amp;lt;I&amp;gt;::&lt;/span&gt;&lt;br&gt;&lt;p&gt;schedule_append_ops(to_append);&lt;/p&gt;" style="rounded=0;whiteSpace=wrap;html=1;" vertex="1" parent="WIyWlLk6GJQsqaUBKTNV-1">
          <mxGeometry x="145" y="840" width="190" height="60" as="geometry" />
        </mxCell>
        <mxCell id="5mb_2o-Lz0aX2MOy3_xr-23" style="edgeStyle=orthogonalEdgeStyle;rounded=0;orthogonalLoop=1;jettySize=auto;html=1;exitX=0.5;exitY=1;exitDx=0;exitDy=0;entryX=0.5;entryY=0;entryDx=0;entryDy=0;" edge="1" parent="WIyWlLk6GJQsqaUBKTNV-1" source="5mb_2o-Lz0aX2MOy3_xr-11" target="5mb_2o-Lz0aX2MOy3_xr-10">
          <mxGeometry relative="1" as="geometry" />
        </mxCell>
        <mxCell id="5mb_2o-Lz0aX2MOy3_xr-11" value="&lt;br&gt;&lt;span&gt;AbstractWriteLog&amp;lt;I&amp;gt;::&lt;/span&gt;&lt;br&gt;&lt;p&gt;schedule_append(ops)&lt;/p&gt;" style="rounded=0;whiteSpace=wrap;html=1;" vertex="1" parent="WIyWlLk6GJQsqaUBKTNV-1">
          <mxGeometry x="142.51" y="730" width="195" height="60" as="geometry" />
        </mxCell>
        <mxCell id="5mb_2o-Lz0aX2MOy3_xr-22" style="edgeStyle=orthogonalEdgeStyle;rounded=0;orthogonalLoop=1;jettySize=auto;html=1;exitX=0.5;exitY=1;exitDx=0;exitDy=0;entryX=0.5;entryY=0;entryDx=0;entryDy=0;" edge="1" parent="WIyWlLk6GJQsqaUBKTNV-1" source="5mb_2o-Lz0aX2MOy3_xr-12" target="5mb_2o-Lz0aX2MOy3_xr-11">
          <mxGeometry relative="1" as="geometry" />
        </mxCell>
        <mxCell id="5mb_2o-Lz0aX2MOy3_xr-12" value="&lt;br&gt;&lt;span&gt;WriteLog&amp;lt;I&amp;gt;::setup_schedule_append(&lt;/span&gt;&lt;br&gt;&lt;p&gt;this-&amp;gt;op_set-&amp;gt;operations, m_do_early_flush, this)&lt;/p&gt;" style="rounded=0;whiteSpace=wrap;html=1;" vertex="1" parent="WIyWlLk6GJQsqaUBKTNV-1">
          <mxGeometry x="92.5" y="630" width="295" height="60" as="geometry" />
        </mxCell>
        <mxCell id="5mb_2o-Lz0aX2MOy3_xr-18" style="edgeStyle=orthogonalEdgeStyle;rounded=0;orthogonalLoop=1;jettySize=auto;html=1;exitX=0.5;exitY=1;exitDx=0;exitDy=0;entryX=0.5;entryY=0;entryDx=0;entryDy=0;" edge="1" parent="WIyWlLk6GJQsqaUBKTNV-1" source="5mb_2o-Lz0aX2MOy3_xr-13" target="5mb_2o-Lz0aX2MOy3_xr-12">
          <mxGeometry relative="1" as="geometry" />
        </mxCell>
        <mxCell id="5mb_2o-Lz0aX2MOy3_xr-13" value="&lt;br&gt;&lt;span&gt;C_WriteRequest&amp;lt;T&amp;gt;::&lt;/span&gt;&lt;br&gt;&lt;p&gt;schedule_append()&lt;/p&gt;" style="rounded=0;whiteSpace=wrap;html=1;" vertex="1" parent="WIyWlLk6GJQsqaUBKTNV-1">
          <mxGeometry x="145" y="530" width="190" height="60" as="geometry" />
        </mxCell>
        <mxCell id="5mb_2o-Lz0aX2MOy3_xr-17" style="edgeStyle=orthogonalEdgeStyle;rounded=0;orthogonalLoop=1;jettySize=auto;html=1;exitX=0.5;exitY=1;exitDx=0;exitDy=0;entryX=0.5;entryY=0;entryDx=0;entryDy=0;" edge="1" parent="WIyWlLk6GJQsqaUBKTNV-1" source="5mb_2o-Lz0aX2MOy3_xr-14" target="5mb_2o-Lz0aX2MOy3_xr-13">
          <mxGeometry relative="1" as="geometry" />
        </mxCell>
        <mxCell id="5mb_2o-Lz0aX2MOy3_xr-14" value="&lt;span&gt;C_WriteRequest&amp;lt;T&amp;gt;::&lt;/span&gt;&lt;br&gt;&lt;p&gt;dispatch()&lt;/p&gt;" style="rounded=0;whiteSpace=wrap;html=1;" vertex="1" parent="WIyWlLk6GJQsqaUBKTNV-1">
          <mxGeometry x="145" y="430" width="190" height="60" as="geometry" />
        </mxCell>
        <mxCell id="5mb_2o-Lz0aX2MOy3_xr-20" value="&lt;div&gt;need_finisher = !this-&amp;gt;m_appending &amp;amp;&amp;amp;&lt;/div&gt;&lt;div&gt;&amp;nbsp; &amp;nbsp; &amp;nbsp; &amp;nbsp;((this-&amp;gt;m_ops_to_append.size() &amp;gt;= CONTROL_BLOCK_MAX_LOG_ENTRIES) ||&lt;/div&gt;&lt;div&gt;&amp;nbsp; &amp;nbsp; &amp;nbsp; &amp;nbsp; !persist_on_flush);&lt;/div&gt;" style="rhombus;whiteSpace=wrap;html=1;" vertex="1" parent="WIyWlLk6GJQsqaUBKTNV-1">
          <mxGeometry x="86.86999999999999" y="930" width="306.25" height="120" as="geometry" />
        </mxCell>
      </root>
    </mxGraphModel>
  </diagram>
</mxfile>
